<?xml version="1.0" encoding="UTF-8" standalone="no"?>
<svg
   version="1.0"
   width="30.000000pt"
   height="33.000000pt"
   viewBox="0 0 30.000000 33.000000"
   preserveAspectRatio="xMidYMid meet"
   id="arrow"
   sodipodi:docname="wind-direction-arrow-black.svg"
   inkscape:version="1.2.1 (9c6d41e410, 2022-07-14)"
   xmlns:inkscape="http://www.inkscape.org/namespaces/inkscape"
   xmlns:sodipodi="http://sodipodi.sourceforge.net/DTD/sodipodi-0.dtd"
   xmlns="http://www.w3.org/2000/svg"
   xmlns:svg="http://www.w3.org/2000/svg">
  <defs
     id="defs44" />
  <sodipodi:namedview
     id="namedview42"
     pagecolor="#ffffff"
     bordercolor="#000000"
     borderopacity="0.25"
     inkscape:showpageshadow="2"
     inkscape:pageopacity="0.0"
     inkscape:pagecheckerboard="0"
     inkscape:deskcolor="#d1d1d1"
     inkscape:document-units="pt"
     showgrid="false"
     inkscape:zoom="19.022727"
     inkscape:cx="19.976105"
     inkscape:cy="22.026285"
     inkscape:window-width="1920"
     inkscape:window-height="1017"
     inkscape:window-x="-8"
     inkscape:window-y="-8"
     inkscape:window-maximized="1"
     inkscape:current-layer="g38" />
  <g
     transform="translate(0.000000,33.000000) scale(0.100000,-0.100000)"
     fill="#000000"
     stroke="none"
     id="g38">
    <path
       d="M120 232 c0 -49 -3 -92 -7 -96 -4 -3 -21 8 -38 24 -30 29 -33 30 -49 15 -16 -16 -14 -20 26 -64 23 -25 53 -57 66 -70 l24 -24 40 39 c89 85 99 99 76 122 -8 8 -20 4 -47 -20 l-36 -32 -5 95 c-5 88 -6 94 -27 97 -22 3 -23 1 -23 -86z"
       id="path36" />
    <path
       style="fill:#ffffff;stroke-width:0.0525687"
       d="M 16.817356,39.571087 C 14.216009,36.953851 11.801229,34.41696 8.1732297,30.489845 3.2963227,25.210853 2.2669988,23.859574 2.2618112,22.729429 c -0.00272,-0.592838 0.2715682,-1.059018 1.1266968,-1.914927 0.642719,-0.643305 1.0651596,-0.984234 1.5003809,-1.210873 0.2419995,-0.12602 0.3533937,-0.150778 0.6833931,-0.151887 0.3353606,-0.0011 0.4453159,0.02324 0.7359617,0.163072 0.6775761,0.325993 1.3785584,0.898125 3.0971422,2.527843 1.5263261,1.447402 2.5060971,2.261857 3.5790821,2.975187 1.042378,0.692982 1.890402,0.990008 2.109136,0.738738 0.570505,-0.655363 0.937071,-6.279634 0.940021,-14.42289 0.0027,-7.5168983 0.215614,-9.2371209 1.205192,-9.7383515 0.252425,-0.1278557 0.343561,-0.1445281 0.78853,-0.144254 0.593845,3.658e-4 1.40794,0.113318 1.922474,0.266735 1.70656,0.50884 2.047792,1.8874674 2.54923,10.2992635 0.123603,2.07346 0.788882,14.645032 0.788882,14.907233 0,0.09899 0.02051,0.179983 0.04559,0.179983 0.02507,0 1.259839,-1.078843 2.743925,-2.397429 2.805865,-2.492966 3.418094,-3.015467 4.254694,-3.63112 1.309772,-0.963863 2.151343,-1.355168 2.917562,-1.356579 0.36809,-6.78e-4 0.455431,0.01855 0.700178,0.154127 0.453233,0.25107 1.208477,1.118125 1.531041,1.757705 0.451792,0.895813 0.389626,1.724325 -0.218531,2.912448 -0.985455,1.925226 -3.224497,4.365366 -9.948513,10.842034 -0.779519,0.750843 -2.527735,2.447428 -3.884923,3.770188 -1.357189,1.32276 -2.482705,2.405018 -2.501147,2.405018 -0.01844,0 -0.968145,-0.940323 -2.11045,-2.089606 z"
       id="path273"
       transform="matrix(7.5,0,0,-7.5,0,330)" />
    <path
       style="fill:#ffffff;stroke-width:0.0525687"
       d="M 17.21312,39.912784 C 14.455772,37.138055 12.54969,35.149768 9.5404422,31.9092 4.3920722,26.365075 3.1127248,24.855278 2.531578,23.637824 2.3679674,23.295072 2.3366833,23.170516 2.3207096,22.798256 c -0.017221,-0.401333 -0.00561,-0.463718 0.1418951,-0.762246 0.3931787,-0.795744 2.0330322,-2.32533 2.6880608,-2.507309 0.8532914,-0.23706 1.6369446,0.219006 3.7268018,2.168901 2.0753087,1.93632 2.8512077,2.594393 3.9317117,3.33465 0.833827,0.571259 1.459768,0.86598 1.90719,0.897994 l 0.361832,0.02589 0.111865,-0.219274 c 0.282785,-0.554304 0.52031,-2.473599 0.683655,-5.524197 0.07896,-1.474591 0.156132,-5.105485 0.21453,-10.09319 0.0599,-5.1160363 0.102006,-5.9240875 0.369114,-7.0839347 0.162721,-0.7065756 0.422796,-1.1121373 0.85647,-1.3355839 0.476522,-0.245524 2.355118,-0.046516 3.088942,0.3272257 1.114148,0.5674425 1.506928,2.0894166 1.884903,7.3037627 0.169497,2.3382912 0.565907,9.4968102 0.844202,15.2449222 0.117876,2.434679 0.13333,2.628435 0.209652,2.628435 0.06231,0 0.412351,-0.300918 2.601118,-2.236106 3.407069,-3.012342 3.943073,-3.460554 4.967742,-4.154073 1.28911,-0.872499 2.295569,-1.164698 2.940393,-0.853668 0.525544,0.253497 1.489351,1.423715 1.753285,2.128774 0.162887,0.43513 0.158292,1.21943 -0.0099,1.698108 -0.643699,1.831436 -2.288742,3.801664 -7.313745,8.759492 -1.878949,1.853832 -9.319114,9.061296 -9.353849,9.061296 -0.01578,0 -0.786813,-0.762903 -1.713409,-1.69534 z"
       id="path391"
       transform="matrix(7.5,0,0,-7.5,0,330)" />
    <path
       style="fill:#ffffff;stroke-width:0.0525687"
       d="M 17.054311,39.755078 C 13.712024,36.385857 10.27489,32.760148 6.7747886,28.911582 3.9629988,25.819853 3.0045092,24.628576 2.531578,23.637824 2.3679674,23.295072 2.3366833,23.170516 2.3207096,22.798256 c -0.01724,-0.40177 -0.00573,-0.463393 0.1424173,-0.762246 0.3984999,-0.8039 2.025232,-2.323342 2.6830175,-2.506061 0.1042681,-0.02896 0.3241699,-0.05279 0.4886706,-0.05295 0.2517908,-2.63e-4 0.3723399,0.03733 0.7622461,0.237632 0.6056733,0.311139 1.2247435,0.813721 2.768826,2.247825 1.4171429,1.316207 1.9458519,1.783221 2.6369139,2.329214 1.351001,1.067396 2.419111,1.650985 3.021704,1.650985 0.248574,0 0.265105,-0.0091 0.358944,-0.197132 0.333019,-0.667371 0.570439,-2.807931 0.744864,-6.715651 0.0271,-0.607169 0.07353,-3.386739 0.103163,-6.176822 0.07263,-6.8370546 0.132757,-8.369606 0.376414,-9.5937877 0.170969,-0.8589835 0.437672,-1.3180304 0.905945,-1.5593039 0.476522,-0.245524 2.355118,-0.046516 3.088942,0.3272257 0.839074,0.4273452 1.264838,1.4753137 1.568435,3.860513 0.274555,2.1570209 0.501229,5.7383879 1.078019,17.0322579 0.210583,4.123344 0.216866,4.227467 0.257529,4.26813 0.05323,0.05323 0.230162,-0.09432 2.189058,-1.82565 3.957048,-3.497352 4.425219,-3.889851 5.468377,-4.584505 1.274538,-0.848733 2.249415,-1.124815 2.886592,-0.817473 0.525544,0.253497 1.489351,1.423715 1.753285,2.128774 0.162346,0.433684 0.158198,1.21858 -0.009,1.698108 -0.28459,0.816333 -0.887391,1.819936 -1.707729,2.843199 -1.460382,1.82163 -3.593502,3.989504 -10.704779,10.879188 -4.046582,3.920486 -4.23172,4.098401 -4.26479,4.098401 -0.01389,0 -0.85246,-0.833871 -1.863488,-1.853046 z"
       id="path393"
       transform="matrix(7.5,0,0,-7.5,0,330)" />
    <path
       style="fill:#2b0000;stroke-width:0.0525687"
       d="M 16.948986,39.649508 C 14.279515,36.955284 11.963047,34.533281 9.1185848,31.462366 4.4555942,26.428145 3.1848124,24.925392 2.588115,23.739813 2.3605449,23.287653 2.3377129,23.207714 2.3206302,22.803302 2.3034465,22.396497 2.3147968,22.335155 2.4626047,22.03601 2.734415,21.485901 3.7361022,20.425692 4.4990444,19.880598 c 0.4260961,-0.304431 0.6870093,-0.40144 1.083202,-0.402741 0.3149691,-0.001 0.3999856,0.02367 0.8148148,0.236772 0.6015204,0.309005 1.2156759,0.806456 2.7684349,2.242364 1.6394849,1.516107 1.6584299,1.533146 2.2156269,1.992761 1.518391,1.252476 2.795638,1.992899 3.437796,1.992899 0.254954,0 0.270424,-0.0084 0.367405,-0.198455 0.187972,-0.368456 0.367862,-1.406498 0.503101,-2.903099 0.218492,-2.417922 0.282066,-4.283082 0.343135,-10.066905 0.07135,-6.7577882 0.131858,-8.2916847 0.37533,-9.5149347 0.170969,-0.8589835 0.437672,-1.3180303 0.905945,-1.5593039 0.476522,-0.2455239 2.355118,-0.046516 3.088943,0.3272257 1.149647,0.5855224 1.548573,2.2356702 1.937264,8.0134399 0.146655,2.17998 0.765066,13.57243 0.870336,16.033453 0.03496,0.817284 0.06966,1.130227 0.125323,1.130227 0.05744,0 0.593804,-0.460875 2.65958,-2.285262 3.505172,-3.09559 3.855143,-3.387627 4.915114,-4.101469 1.315203,-0.885728 2.291232,-1.170238 2.940392,-0.857115 0.525545,0.253496 1.489352,1.423715 1.753285,2.128773 0.162554,0.434238 0.158235,1.218907 -0.0093,1.698108 -0.356094,1.018255 -1.01426,2.041341 -2.248912,3.495819 -0.90298,1.063753 -2.023684,2.234164 -4.411729,4.607403 -2.373388,2.358673 -9.953919,9.717567 -10.010244,9.717567 -0.01883,0 -0.907511,-0.881378 -1.974854,-1.958617 z"
       id="path294"
       transform="matrix(7.5,0,0,-7.5,0,330)" />
  </g>
</svg>
